<svg enable-background="new 0 0 268.725 268.725" viewBox="0 0 268.725 268.725" xmlns="http://www.w3.org/2000/svg"><path clip-rule="evenodd" d="m161.359 56.337c-7.041-7.049-18.458-7.049-25.498 0l-6.374 6.381-89.243 89.337.023.023-2.812 2.82s-8.968 9.032-29.216 74.399c-.142.457-.283.911-.426 1.374-.361 1.171-.726 2.361-1.094 3.567-.326 1.066-.656 2.154-.987 3.249-.279.923-.556 1.836-.839 2.779-.642 2.14-1.292 4.318-1.955 6.567-1.455 4.937-5.009 16.07-.99 20.1 3.87 3.882 15.12.467 20.043-.993 2.232-.662 4.395-1.311 6.519-1.952.981-.296 1.932-.586 2.891-.878 1.031-.314 2.057-.626 3.062-.935 1.269-.39 2.52-.775 3.75-1.157.367-.114.727-.227 1.091-.34 62.192-19.365 73.357-28.453 74.285-29.284.007-.005.007-.005.012-.01.039-.036.066-.06.066-.06l2.879-2.886.193.193 89.245-89.337-.001-.001 6.374-6.381c7.041-7.048 7.041-18.476 0-25.525zm-57.96 163.445c-.078.053-.184.122-.296.193-.062.04-.137.087-.211.133-.075.047-.157.098-.244.151-.077.047-.157.095-.243.147-2.969 1.777-11.682 6.362-32.828 14.017-2.471.894-5.162 1.842-7.981 2.819l-30.06-30.091c.98-2.84 1.929-5.551 2.826-8.041 7.638-21.235 12.219-29.974 13.986-32.939.043-.071.082-.136.121-.2.062-.102.12-.197.174-.284.043-.069.088-.141.126-.2.071-.111.14-.217.193-.296l2.2-2.206 54.485 54.542zm159.952-163.445-50.997-51.05c-7.041-7.048-18.456-7.048-25.498 0l-12.748 12.763c-7.041 7.048-7.041 18.476 0 25.524l50.996 51.05c7.04 7.048 18.457 7.048 25.498 0l12.749-12.762c7.041-7.049 7.041-18.477 0-25.525z" fill="#08a1a9" fill-rule="evenodd"/></svg>