<svg enable-background="new 0 0 44.816 44.816" height="44.816" viewBox="0 0 44.816 44.816" width="44.816" xmlns="http://www.w3.org/2000/svg"><g fill="#08a1a9"><path d="m22.404 21.173c2.126 0 3.895-1.724 3.895-3.85v-13.474c0-2.125-1.769-3.849-3.895-3.849s-3.895 1.724-3.895 3.849v13.475c.001 2.125 1.769 3.849 3.895 3.849z"/><path d="m30.727 3.33c-.481-.2-1.03-.147-1.466.142-.434.289-.695.776-.695 1.298v5.113c0 .56.301 1.076.784 1.354 4.192 2.407 6.918 6.884 6.918 11.999 0 7.654-6.217 13.882-13.87 13.882-7.654 0-13.86-6.228-13.86-13.882 0-5.113 2.813-9.589 6.931-11.997.478-.279.773-.794.773-1.348v-5.122c0-.521-.261-1.009-.695-1.298-.435-.29-.984-.342-1.466-.142-7.824 3.264-13.236 10.947-13.236 19.907 0 11.92 9.653 21.58 21.572 21.58 11.917 0 21.555-9.66 21.555-21.58-.001-8.96-5.418-16.643-13.245-19.906z"/></g></svg>