<svg enable-background="new 0 0 25.73 25.73" height="25.73" viewBox="0 0 25.73 25.73" width="25.73" xmlns="http://www.w3.org/2000/svg"><g fill="#fff"><path d="m24.408.597-23.702 12.429c-.975.511-.935 1.26.088 1.665l3.026 1.196c1.021.404 2.569.185 3.437-.494l13.142-10.363c.864-.681.957-.58.206.224l-10.39 11.123c-.753.801-.529 1.783.495 2.182l.354.139c1.024.396 2.698 1.062 3.717 1.478l3.356 1.366c1.02.415 1.854.759 1.854.765s.006.025.011.026c.005.002.246-.864.534-1.926l5.118-18.807c.288-1.063-.271-1.513-1.246-1.003z"/><path d="m10.324 19.82-2.322-.95c-1.018-.417-1.506.072-1.084 1.089.001 0 2.156 5.194 2.096 5.377-.062.182 2.068-3.082 2.068-3.082.602-.922.26-2.017-.758-2.434z"/></g></svg>